<?xml version="1.0" encoding="UTF-8" standalone="no" ?>
<!DOCTYPE svg PUBLIC "-//W3C//DTD SVG 1.1//EN" "http://www.w3.org/Graphics/SVG/1.1/DTD/svg11.dtd">
<svg xmlns="http://www.w3.org/2000/svg" xmlns:xlink="http://www.w3.org/1999/xlink" version="1.1" width="1280" height="1024" viewBox="0 0 1280 1024" xml:space="preserve">
<desc>Created with Fabric.js 5.3.0</desc>
<defs>
</defs>
<g transform="matrix(1 0 0 1 640 512)" id="background-logo"  >
<rect style="stroke: none; stroke-width: 0; stroke-dasharray: none; stroke-linecap: butt; stroke-dashoffset: 0; stroke-linejoin: miter; stroke-miterlimit: 4; fill: rgb(255,255,255); fill-opacity: 0; fill-rule: nonzero; opacity: 1;"  paint-order="stroke"  x="-640" y="-512" rx="0" ry="0" width="1280" height="1024" />
</g>
<g transform="matrix(0.9707698303210289 0 0 0.9707698303210289 211.054375 512)" id="logo-logo"  >
<g style=""  paint-order="stroke"   >
		<g transform="matrix(1.0947661580040624 0 0 1.0947661580040626 0 0)"  >
<g style=""  paint-order="stroke"   >
		<g transform="matrix(1 0 0 1 -46.69999999999998 5.250000000000014)"  >
<linearGradient id="SVGID_509159_487439" gradientUnits="userSpaceOnUse" gradientTransform="matrix(1 0 0 1 0 10.500000000000014)"  x1="0" y1="0" x2="0" y2="189">
<stop offset="0%" style="stop-color:rgb(104,175,237);stop-opacity: 1"/>
<stop offset="100%" style="stop-color:rgb(54,149,231);stop-opacity: 1"/>
</linearGradient>
<path style="stroke: none; stroke-width: 1; stroke-dasharray: none; stroke-linecap: butt; stroke-dashoffset: 0; stroke-linejoin: miter; stroke-miterlimit: 4; fill: url(#SVGID_509159_487439); fill-rule: nonzero; opacity: 1;"  paint-order="stroke"  transform=" translate(-47.30000000000002, -105.2)" d="M 0.8 131.7 L 0 131.5 L 0.2 132.3 C 1 135.4 3.1 138 6 139.4 C 8.7 140.70000000000002 11.7 141.70000000000002 14.7 142.20000000000002 L 15.1 142.3 C 16.4 144.70000000000002 17.9 147.10000000000002 19.4 149.4 C 17.5 148.4 15.399999999999999 147.70000000000002 13.299999999999999 147.4 C 12.999999999999998 146.1 11.899999999999999 145.20000000000002 10.599999999999998 145.3 C 9.199999999999998 145.10000000000002 7.899999999999998 146 7.6999999999999975 147.4 C 7.499999999999997 148.8 8.399999999999997 150.1 9.799999999999997 150.3 C 10.099999999999998 150.3 10.299999999999997 150.3 10.599999999999998 150.3 C 11.799999999999997 150.3 12.799999999999997 149.60000000000002 13.199999999999998 148.5 C 16.099999999999998 148.9 18.9 150 21.199999999999996 151.9 C 22.899999999999995 154.20000000000002 24.699999999999996 156.5 26.599999999999994 158.6 C 24.799999999999994 157.4 22.799999999999994 156.6 20.699999999999996 156.1 C 19.099999999999994 155.7 17.499999999999996 155.5 15.899999999999995 155.5 C 13.899999999999995 155.5 11.999999999999995 155.8 10.099999999999994 156.4 L 9.599999999999994 156.6 L 9.799999999999994 157.1 C 10.499999999999993 159.1 12.299999999999994 160.7 15.099999999999994 161.79999999999998 C 19.799999999999994 163.6 24.899999999999995 163.7 29.699999999999996 162.2 L 29.899999999999995 162.1 C 32.699999999999996 164.9 35.699999999999996 167.6 38.8 170 C 33.099999999999994 168.9 27.199999999999996 170.7 23.199999999999996 174.9 L 22.699999999999996 175.4 L 23.299999999999997 175.8 C 25.099999999999998 176.9 27.299999999999997 177.4 29.4 177.3 L 30 177.3 C 34.7 177.10000000000002 39.2 175.8 43.2 173.4 C 46.300000000000004 175.5 49.5 177.4 52.800000000000004 179.1 C 51.900000000000006 179.1 51.1 179.5 50.6 180.29999999999998 C 50.1 181.29999999999998 50.300000000000004 182.6 51.1 183.39999999999998 C 51.800000000000004 183.99999999999997 52.7 184.49999999999997 53.6 184.7 C 54.1 184.89999999999998 54.7 185 55.300000000000004 185.1 C 54.6 185.2 53.800000000000004 185.6 53.2 186 C 52.400000000000006 186.6 52.1 187.8 52.5 188.7 C 52.9 189.6 53.9 190 55.3 190 L 55.599999999999994 190 L 56.3 190 C 55.9 190.3 55.5 190.6 55.199999999999996 191 C 54.599999999999994 191.8 54.699999999999996 192.9 55.3 193.6 C 55.699999999999996 194 56.3 194.29999999999998 56.9 194.2 C 57.4 194.2 58 194.1 58.5 193.89999999999998 L 58.5 193.89999999999998 C 62.7 192.49999999999997 68.6 189.7 71.7 186.2 L 71.7 186.2 C 73.4 186.6 75 187 76.7 187.39999999999998 C 74.8 188.39999999999998 73.5 190.09999999999997 73.10000000000001 192.2 L 72.9 192.29999999999998 C 72 193.39999999999998 71.80000000000001 194.89999999999998 72.30000000000001 196.2 C 72.9 197.39999999999998 73.80000000000001 198.5 75.00000000000001 199.29999999999998 C 75.30000000000001 199.49999999999997 75.60000000000001 199.7 75.90000000000002 199.79999999999998 C 76.00000000000001 199.79999999999998 76.20000000000002 199.89999999999998 76.30000000000003 199.89999999999998 C 76.60000000000002 199.89999999999998 76.90000000000002 199.79999999999998 77.20000000000003 199.59999999999997 C 77.50000000000003 199.29999999999995 77.70000000000003 198.79999999999995 77.70000000000003 198.39999999999998 C 77.80000000000003 196.7 77.40000000000003 194.89999999999998 76.40000000000003 193.49999999999997 C 76.10000000000004 192.99999999999997 75.70000000000003 192.49999999999997 75.20000000000003 192.19999999999996 C 74.90000000000003 192.09999999999997 74.70000000000003 191.99999999999997 74.40000000000003 191.89999999999995 C 75.00000000000003 189.79999999999995 76.70000000000003 188.29999999999995 78.90000000000003 187.89999999999995 C 79.00000000000003 187.89999999999995 79.00000000000003 187.89999999999995 79.10000000000004 187.79999999999995 C 84.20000000000003 188.69999999999996 89.40000000000003 189.09999999999997 94.60000000000004 189.09999999999997 L 94.60000000000004 188.09999999999997 C 90.70000000000003 188.09999999999997 86.90000000000003 187.79999999999995 83.00000000000004 187.29999999999995 L 82.90000000000005 187.29999999999995 C 80.80000000000005 186.49999999999994 79.00000000000004 184.79999999999995 78.20000000000005 182.69999999999996 C 77.50000000000004 181.09999999999997 77.40000000000005 179.29999999999995 77.90000000000005 177.59999999999997 C 78.30000000000005 177.39999999999998 78.70000000000005 177.19999999999996 79.00000000000004 176.79999999999995 C 79.30000000000004 176.29999999999995 79.60000000000004 175.69999999999996 79.70000000000005 175.19999999999996 C 80.40000000000005 172.59999999999997 80.30000000000004 169.79999999999995 79.50000000000004 167.19999999999996 L 79.30000000000004 166.79999999999995 L 78.80000000000004 166.89999999999995 C 77.70000000000005 167.19999999999996 76.70000000000005 167.89999999999995 76.10000000000004 168.89999999999995 C 74.90000000000003 170.89999999999995 74.50000000000004 173.19999999999996 74.80000000000004 175.39999999999995 C 74.90000000000003 176.39999999999995 75.60000000000004 177.29999999999995 76.60000000000004 177.79999999999995 C 76.10000000000004 179.59999999999997 76.30000000000004 181.59999999999997 77.00000000000004 183.29999999999995 C 77.60000000000004 184.69999999999996 78.60000000000004 185.99999999999994 79.80000000000004 186.99999999999994 C 77.40000000000003 186.59999999999994 74.90000000000003 186.09999999999994 72.60000000000004 185.49999999999994 L 72.40000000000003 185.09999999999994 L 72.30000000000004 184.89999999999995 C 72.30000000000004 184.89999999999995 72.30000000000004 184.89999999999995 72.30000000000004 184.79999999999995 C 71.00000000000004 180.39999999999995 66.50000000000004 175.19999999999996 63.10000000000004 172.19999999999996 C 62.000000000000036 171.19999999999996 61.000000000000036 170.89999999999995 60.10000000000004 171.29999999999995 C 59.20000000000004 171.79999999999995 58.80000000000004 172.69999999999996 59.000000000000036 173.69999999999996 C 59.10000000000004 174.19999999999996 59.30000000000003 174.59999999999997 59.60000000000004 175.09999999999997 L 59.000000000000036 174.79999999999995 L 59.000000000000036 174.79999999999995 C 57.500000000000036 174.09999999999997 56.400000000000034 174.09999999999997 55.60000000000004 174.69999999999996 C 54.900000000000034 175.39999999999995 54.70000000000004 176.59999999999997 55.20000000000004 177.49999999999997 C 55.60000000000004 178.19999999999996 56.20000000000004 178.89999999999998 57.000000000000036 179.29999999999998 L 57.10000000000004 179.39999999999998 C 56.60000000000004 179.29999999999998 56.000000000000036 179.2 55.500000000000036 179.2 C 51.30000000000003 177.2 47.20000000000003 174.79999999999998 43.400000000000034 172.1 C 45.70000000000003 165.5 43.70000000000003 158.2 38.500000000000036 153.5 L 37.900000000000034 152.9 L 37.60000000000004 153.70000000000002 C 36.000000000000036 159.00000000000003 36.80000000000004 164.70000000000002 39.80000000000004 169.3 C 36.10000000000004 166.4 32.60000000000004 163.3 29.40000000000004 159.9 C 32.80000000000004 152.70000000000002 31.90000000000004 144.20000000000002 26.90000000000004 138 L 26.40000000000004 137.4 L 26.000000000000043 138.20000000000002 C 23.300000000000043 143.70000000000002 23.200000000000042 150.20000000000002 25.800000000000043 155.8 C 23.500000000000043 153 21.300000000000043 150.10000000000002 19.40000000000004 147 C 18.60000000000004 144.2 18.60000000000004 141.2 19.60000000000004 138.4 C 20.00000000000004 139 20.700000000000042 139.4 21.40000000000004 139.4 C 22.90000000000004 139.20000000000002 24.000000000000043 137.9 23.80000000000004 136.4 C 23.70000000000004 135.1 22.60000000000004 134.1 21.40000000000004 134 C 20.000000000000043 134.1 18.90000000000004 135.3 19.000000000000043 136.7 C 19.000000000000043 136.79999999999998 19.000000000000043 136.89999999999998 19.000000000000043 137 C 17.90000000000004 139.3 17.500000000000043 141.9 17.700000000000042 144.5 C 16.700000000000042 142.8 15.800000000000042 141.1 14.800000000000042 139.3 C 16.40000000000004 138.4 17.000000000000043 136.4 17.30000000000004 134.9 C 17.90000000000004 131.8 17.90000000000004 128.70000000000002 17.30000000000004 125.60000000000001 L 17.10000000000004 124.7 L 16.40000000000004 125.3 C 14.400000000000041 126.89999999999999 13.00000000000004 129.2 12.50000000000004 131.8 C 12.400000000000041 132.5 12.300000000000042 133.20000000000002 12.300000000000042 133.9 C 7.700000000000042 123 5.300000000000042 111.4 5.400000000000041 99.60000000000001 C 5.400000000000041 55.10000000000001 38.50000000000004 18.200000000000003 81.60000000000005 12.000000000000014 L 84.00000000000006 11.100000000000014 C 84.50000000000006 10.900000000000015 85.00000000000006 10.700000000000014 85.50000000000006 10.500000000000014 C 39.8 15.1 4.2 53.3 4.2 99.8 C 4.2 113.3 7.2 126.6 13.100000000000001 138.7 C 9.9 135.1 5.6 132.6 0.8 131.7 z M 10.5 149.2 C 9.7 149.29999999999998 9 148.79999999999998 8.9 148 C 8.8 147.2 9.3 146.5 10.1 146.4 C 10.299999999999999 146.4 10.4 146.4 10.6 146.4 C 11.4 146.3 12.1 146.8 12.2 147.6 C 12.299999999999999 148.4 11.799999999999999 149.1 11 149.2 C 10.8 149.3 10.6 149.3 10.5 149.2 z M 74.5 193.3 C 74.9 193.5 75.2 193.8 75.4 194.20000000000002 C 76.2 195.4 76.60000000000001 196.9 76.5 198.4 C 76.5 198.70000000000002 76.5 198.8 76.4 198.8 C 76.30000000000001 198.8 76.2 198.8 76.10000000000001 198.8 C 75.9 198.70000000000002 75.7 198.60000000000002 75.50000000000001 198.5 C 74.50000000000001 197.9 73.70000000000002 197 73.20000000000002 196 C 72.90000000000002 195.1 73.00000000000001 194.1 73.50000000000001 193.4 C 73.6 193.2 73.9 193 74.5 193.3 L 74.5 193.3 z M 75.9 175.3 L 75.9 175.3 C 75.60000000000001 173.3 76 171.3 77 169.60000000000002 C 77.3 169.00000000000003 77.8 168.60000000000002 78.4 168.3 C 79.10000000000001 170.5 79.10000000000001 172.9 78.5 175.10000000000002 C 78.4 175.50000000000003 78.2 176.00000000000003 78 176.3 C 77.8 176.60000000000002 77.5 176.8 77.1 176.8 C 76.4 176.8 76 176 75.9 175.3 L 75.9 175.3 z M 57.9 193 C 56.9 193.3 56.3 193.3 55.9 193 C 55.6 192.6 55.6 192.1 55.9 191.7 C 56.3 191.2 56.8 190.79999999999998 57.3 190.6 C 57.8 190.4 58.199999999999996 190.1 58.699999999999996 189.9 C 61.9 189.6 65.1 188.9 68.1 187.8 C 65.1 190 61.6 191.8 57.9 193 z M 65.3 187.5 C 64.8 187.6 64.3 187.7 64 187.8 C 62.8 188.10000000000002 61.6 188.3 60.5 188.5 C 59.8 188.6 59.2 188.7 58.6 188.7 C 57.5 188.79999999999998 56.5 188.89999999999998 55.5 188.89999999999998 C 54.3 188.89999999999998 53.7 188.7 53.4 188.29999999999998 C 53.199999999999996 187.79999999999998 53.4 187.29999999999998 53.9 186.89999999999998 C 54.5 186.49999999999997 55.1 186.2 55.8 186.09999999999997 C 56.5 185.89999999999998 57.3 185.79999999999995 58 185.69999999999996 C 59.4 185.99999999999997 60.8 186.19999999999996 62.3 186.29999999999995 C 62.8 186.39999999999995 63.699999999999996 186.39999999999995 64.8 186.39999999999995 L 68.5 186.39999999999995 C 67.4 186.9 66.3 187.2 65.3 187.5 L 65.3 187.5 z M 60.4 172.5 C 60.5 172.5 60.6 172.4 60.699999999999996 172.4 C 61.3 172.5 61.8 172.8 62.199999999999996 173.20000000000002 L 62.199999999999996 173.20000000000002 C 65.1 175.8 67.6 178.8 69.6 182.10000000000002 C 67.19999999999999 179.90000000000003 64.6 178.00000000000003 61.8 176.50000000000003 C 61.5 176.10000000000002 61.099999999999994 175.70000000000002 60.8 175.30000000000004 C 60.4 174.80000000000004 60.099999999999994 174.30000000000004 59.9 173.70000000000005 C 59.9 173.2 60 172.8 60.4 172.5 L 60.4 172.5 z M 56.1 177.2 C 55.800000000000004 176.7 55.9 176.2 56.2 175.79999999999998 C 56.400000000000006 175.6 56.6 175.6 56.900000000000006 175.6 C 57.400000000000006 175.6 57.900000000000006 175.79999999999998 58.400000000000006 176 L 58.400000000000006 176 C 59.300000000000004 176.4 60.2 176.9 61.2 177.4 C 61.7 177.70000000000002 62.300000000000004 178 62.900000000000006 178.4 C 63.900000000000006 179 64.9 179.70000000000002 65.80000000000001 180.4 C 66.10000000000001 180.6 66.50000000000001 180.9 67.00000000000001 181.3 C 67.90000000000002 182 68.70000000000002 182.70000000000002 69.40000000000002 183.5 C 69.00000000000001 183.3 68.60000000000002 183.1 68.20000000000002 182.9 C 67.50000000000001 182.6 66.80000000000001 182.3 66.00000000000001 182 C 64.00000000000001 181.3 62.000000000000014 180.7 60.000000000000014 180.2 C 59.20000000000002 179.7 58.40000000000001 179.2 57.600000000000016 178.6 C 56.9 178.3 56.4 177.8 56.1 177.2 L 56.1 177.2 z M 67.9 185.3 C 67.5 185.3 63.2 185.3 62.300000000000004 185.20000000000002 C 61.400000000000006 185.10000000000002 60.7 185.00000000000003 59.800000000000004 184.9 C 59.2 184.8 58.50000000000001 184.70000000000002 57.900000000000006 184.6 C 56.50000000000001 184.29999999999998 55.2 184 53.800000000000004 183.6 C 53.00000000000001 183.4 52.300000000000004 183.1 51.7 182.6 C 51.2 182.2 51.1 181.5 51.300000000000004 180.9 C 51.7 180.4 52.400000000000006 180.1 53.1 180.20000000000002 C 53.4 180.20000000000002 53.6 180.20000000000002 53.9 180.20000000000002 L 55.3 180.4 L 59.5 181.20000000000002 C 60.1 181.3 60.8 181.50000000000003 61.4 181.70000000000002 C 64 182.4 66.6 183.3 69 184.50000000000003 L 69.4 184.70000000000002 C 69 185.1 68.4 185.3 67.9 185.3 L 67.9 185.3 z M 38.3 155.2 C 42.5 159.39999999999998 44.099999999999994 165.6 42.4 171.39999999999998 L 42.3 171.39999999999998 C 38.3 167 36.8 160.9 38.3 155.2 z M 41.7 172.3 L 42.1 172.70000000000002 C 38.300000000000004 174.8 34.1 176.00000000000003 29.8 176.20000000000002 C 27.900000000000002 176.3 26 176.00000000000003 24.3 175.20000000000002 C 29 170.8 35.9 169.7 41.7 172.3 L 41.7 172.3 z M 15.4 160.9 C 13.8 160.3 11.8 159.20000000000002 10.9 157.5 C 14 156.6 17.2 156.6 20.3 157.4 C 23.3 158.1 26 159.5 28.3 161.6 C 24 162.7 19.5 162.5 15.4 160.9 z M 26.4 139.8 C 30.4 145.4 31.2 152.70000000000002 28.5 159 C 24.5 153.4 23.7 146.1 26.4 139.8 z M 21.2 135.3 C 22.099999999999998 135.5 22.7 136.4 22.5 137.3 C 22.4 137.9 21.9 138.4 21.2 138.60000000000002 C 20.3 138.40000000000003 19.7 137.50000000000003 19.9 136.60000000000002 C 20 136 20.5 135.5 21.2 135.3 z M 13.4 132.2 C 13.8 130.2 14.8 128.39999999999998 16.2 126.99999999999999 C 16.599999999999998 129.6 16.599999999999998 132.29999999999998 16.099999999999998 134.89999999999998 C 15.899999999999999 136.2 15.299999999999997 137.49999999999997 14.399999999999999 138.39999999999998 C 13.3 136.5 13 134.3 13.4 132.2 z M 13.5 140.9 C 11.1 140.4 8.7 139.6 6.5 138.5 C 4.2 137.3 2.4000000000000004 135.4 1.5 133 C 6.3 134.2 10.5 136.9 13.5 140.9 z" stroke-linecap="round" />
</g>
		<g transform="matrix(1 0 0 1 46.75 -5.249999999999972)"  >
<linearGradient id="SVGID_509159_487440" gradientUnits="userSpaceOnUse" gradientTransform="matrix(1 0 0 1 93.5 0)"  x1="0" y1="0" x2="0" y2="189">
<stop offset="0%" style="stop-color:rgb(104,175,237);stop-opacity: 1"/>
<stop offset="100%" style="stop-color:rgb(54,149,231);stop-opacity: 1"/>
</linearGradient>
<path style="stroke: none; stroke-width: 1; stroke-dasharray: none; stroke-linecap: butt; stroke-dashoffset: 0; stroke-linejoin: miter; stroke-miterlimit: 4; fill: url(#SVGID_509159_487440); fill-rule: nonzero; opacity: 1;"  paint-order="stroke"  transform=" translate(-140.75, -94.70000000000002)" d="M 187.2 68.4 L 188 68.5 L 187.8 67.7 C 187 64.60000000000001 184.9 62 182 60.6 C 179.3 59.300000000000004 176.3 58.300000000000004 173.3 57.800000000000004 L 173 57.7 C 171.7 55.300000000000004 170.2 52.900000000000006 168.7 50.6 C 170.6 51.6 172.7 52.300000000000004 174.79999999999998 52.6 C 175.1 53.9 176.2 54.800000000000004 177.49999999999997 54.7 C 178.89999999999998 54.900000000000006 180.19999999999996 54 180.39999999999998 52.6 C 180.6 51.2 179.7 49.9 178.29999999999998 49.7 C 177.99999999999997 49.7 177.79999999999998 49.7 177.49999999999997 49.7 C 176.29999999999998 49.7 175.29999999999998 50.400000000000006 174.89999999999998 51.5 C 171.99999999999997 51.1 169.2 50 166.89999999999998 48.1 C 165.2 45.800000000000004 163.39999999999998 43.5 161.49999999999997 41.4 C 163.29999999999998 42.6 165.29999999999998 43.4 167.39999999999998 43.9 C 168.99999999999997 44.3 170.59999999999997 44.5 172.2 44.5 C 174.2 44.5 176.1 44.2 178 43.6 L 178.5 43.4 L 178.3 42.9 C 177.60000000000002 40.9 175.8 39.3 173 38.199999999999996 C 168.3 36.4 163.2 36.3 158.4 37.8 L 158.20000000000002 37.9 C 155.4 35.1 152.4 32.4 149.3 30 C 155 31.1 160.9 29.3 164.9 25.1 L 165.4 24.6 L 164.8 24.200000000000003 C 163 23.1 160.8 22.6 158.70000000000002 22.700000000000003 L 158.10000000000002 22.700000000000003 C 153.40000000000003 22.900000000000002 148.90000000000003 24.200000000000003 144.90000000000003 26.6 C 141.80000000000004 24.5 138.60000000000002 22.6 135.30000000000004 20.900000000000002 C 136.20000000000005 20.900000000000002 137.00000000000003 20.500000000000004 137.50000000000003 19.700000000000003 C 138.00000000000003 18.700000000000003 137.80000000000004 17.400000000000002 137.00000000000003 16.6 C 136.30000000000004 16 135.40000000000003 15.500000000000002 134.40000000000003 15.3 C 133.80000000000004 15.100000000000001 133.30000000000004 15 132.70000000000005 14.9 C 133.40000000000003 14.8 134.20000000000005 14.4 134.80000000000004 14 C 135.60000000000005 13.4 135.90000000000003 12.2 135.50000000000003 11.3 C 135.10000000000002 10.4 134.10000000000002 10 132.70000000000002 10 L 132.4 10 L 131.8 10 C 132.20000000000002 9.7 132.60000000000002 9.4 132.9 9 C 133.5 8.2 133.4 7.1 132.8 6.4 C 132.4 6 131.8 5.7 131.20000000000002 5.800000000000001 C 130.70000000000002 5.800000000000001 130.10000000000002 5.9 129.60000000000002 6.1000000000000005 L 129.60000000000002 6.1000000000000005 C 125.40000000000002 7.5 119.50000000000003 10.3 116.40000000000002 13.8 L 116.40000000000002 13.8 C 114.70000000000002 13.4 113.10000000000002 13 111.40000000000002 12.600000000000001 C 113.30000000000003 11.600000000000001 114.60000000000002 9.900000000000002 115.00000000000001 7.800000000000002 L 115.20000000000002 7.700000000000002 C 116.10000000000002 6.600000000000001 116.30000000000001 5.100000000000001 115.80000000000001 3.800000000000002 C 115.20000000000002 2.6000000000000023 114.30000000000001 1.5000000000000022 113.10000000000001 0.700000000000002 C 112.80000000000001 0.500000000000002 112.50000000000001 0.30000000000000193 112.2 0.20000000000000195 C 112.1 0 112 0 111.8 0 C 111.5 0 111.2 0.1 110.89999999999999 0.3 C 110.6 0.6 110.39999999999999 1.1 110.39999999999999 1.5 C 110.3 3.2 110.69999999999999 5 111.69999999999999 6.4 C 111.99999999999999 6.9 112.39999999999999 7.4 112.89999999999999 7.7 C 113.19999999999999 7.8 113.39999999999999 7.9 113.69999999999999 8 C 113.1 10.1 111.39999999999999 11.6 109.19999999999999 12 C 109.1 12 109.1 12 108.99999999999999 12.1 C 103.89999999999999 11.2 98.69999999999999 10.799999999999999 93.49999999999999 10.799999999999999 L 93.49999999999999 11.799999999999999 C 97.39999999999999 11.799999999999999 101.19999999999999 12.1 105.09999999999998 12.6 L 105.19999999999997 12.6 C 107.29999999999997 13.4 109.09999999999998 15.1 109.89999999999998 17.2 C 110.59999999999998 18.8 110.69999999999997 20.599999999999998 110.19999999999997 22.299999999999997 C 109.79999999999997 22.499999999999996 109.39999999999998 22.699999999999996 109.09999999999998 23.099999999999998 C 108.79999999999998 23.599999999999998 108.49999999999999 24.2 108.39999999999998 24.7 C 107.69999999999997 27.3 107.79999999999998 30.1 108.59999999999998 32.7 L 108.79999999999998 33.1 L 109.29999999999998 33 C 110.39999999999998 32.7 111.39999999999998 32 111.99999999999999 31 C 113.19999999999999 29 113.59999999999998 26.7 113.29999999999998 24.5 C 113.19999999999999 23.5 112.49999999999999 22.6 111.49999999999999 22.1 C 111.99999999999999 20.3 111.79999999999998 18.3 111.09999999999998 16.6 C 110.49999999999999 15.200000000000001 109.49999999999999 13.900000000000002 108.29999999999998 12.900000000000002 C 110.69999999999999 13.300000000000002 113.19999999999999 13.800000000000002 115.49999999999999 14.400000000000002 L 115.69999999999999 14.800000000000002 L 115.79999999999998 15.000000000000002 C 115.79999999999998 15.000000000000002 115.79999999999998 15.000000000000002 115.79999999999998 15.100000000000001 C 117.09999999999998 19.5 121.59999999999998 24.700000000000003 124.99999999999999 27.700000000000003 C 126.09999999999998 28.700000000000003 127.09999999999998 29.000000000000004 127.99999999999999 28.6 C 128.89999999999998 28.1 129.29999999999998 27.200000000000003 129.1 26.200000000000003 C 129 25.700000000000003 128.79999999999998 25.300000000000004 128.5 24.800000000000004 L 129.1 25.100000000000005 L 129.1 25.100000000000005 C 130.6 25.800000000000004 131.7 25.800000000000004 132.5 25.200000000000006 C 133.2 24.500000000000007 133.4 23.300000000000008 132.9 22.400000000000006 C 132.5 21.700000000000006 131.9 21.000000000000007 131.1 20.600000000000005 L 131 20.500000000000004 C 131.5 20.600000000000005 132.1 20.700000000000003 132.6 20.700000000000003 C 136.79999999999998 22.700000000000003 140.9 25.1 144.7 27.800000000000004 C 142.39999999999998 34.400000000000006 144.39999999999998 41.7 149.6 46.400000000000006 L 150.2 47.00000000000001 L 150.5 46.20000000000001 C 152.1 40.90000000000001 151.3 35.20000000000001 148.3 30.60000000000001 C 152 33.50000000000001 155.5 36.60000000000001 158.70000000000002 40.00000000000001 C 155.3 47.20000000000001 156.20000000000002 55.7 161.20000000000002 61.900000000000006 L 161.70000000000002 62.50000000000001 L 162.10000000000002 61.70000000000001 C 164.8 56.20000000000001 164.90000000000003 49.70000000000001 162.3 44.10000000000001 C 164.60000000000002 46.900000000000006 166.8 49.80000000000001 168.70000000000002 52.900000000000006 C 169.50000000000003 55.7 169.50000000000003 58.7 168.50000000000003 61.50000000000001 C 168.10000000000002 60.900000000000006 167.40000000000003 60.50000000000001 166.70000000000002 60.50000000000001 C 165.20000000000002 60.70000000000001 164.10000000000002 62.00000000000001 164.3 63.50000000000001 C 164.4 64.80000000000001 165.5 65.80000000000001 166.70000000000002 65.9 C 168.10000000000002 65.80000000000001 169.20000000000002 64.60000000000001 169.10000000000002 63.2 C 169.10000000000002 63.1 169.10000000000002 63 169.10000000000002 62.900000000000006 C 170.20000000000002 60.60000000000001 170.60000000000002 58.00000000000001 170.40000000000003 55.400000000000006 C 171.40000000000003 57.10000000000001 172.30000000000004 58.800000000000004 173.30000000000004 60.60000000000001 C 171.70000000000005 61.50000000000001 171.10000000000005 63.50000000000001 170.80000000000004 65.00000000000001 C 170.20000000000005 68.10000000000001 170.20000000000005 71.20000000000002 170.80000000000004 74.30000000000001 L 171.00000000000003 75.20000000000002 L 171.70000000000002 74.60000000000002 C 173.70000000000002 73.00000000000003 175.10000000000002 70.70000000000002 175.60000000000002 68.10000000000002 C 175.70000000000002 67.40000000000002 175.8 66.70000000000002 175.8 66.00000000000003 C 180.4 76.90000000000003 182.8 88.50000000000003 182.70000000000002 100.30000000000003 C 182.70000000000002 144.8 149.60000000000002 181.70000000000005 106.50000000000001 187.90000000000003 L 104.10000000000001 188.80000000000004 C 103.60000000000001 189.00000000000003 103.10000000000001 189.20000000000005 102.60000000000001 189.40000000000003 C 148.20000000000002 185.00000000000003 183.8 146.80000000000004 183.8 100.30000000000004 C 183.8 86.80000000000004 180.8 73.50000000000004 174.9 61.40000000000004 C 178.1 65 182.4 67.4 187.2 68.4 z M 177.5 50.8 C 178.3 50.699999999999996 179 51.199999999999996 179.1 52 C 179.2 52.8 178.7 53.5 177.9 53.6 C 177.70000000000002 53.6 177.6 53.6 177.4 53.6 C 176.6 53.7 175.9 53.2 175.8 52.4 C 175.70000000000002 51.6 176.20000000000002 50.9 177 50.8 C 177.2 50.8 177.4 50.8 177.5 50.8 z M 113.5 6.7 C 113.1 6.5 112.8 6.2 112.6 5.8 C 111.8 4.6 111.39999999999999 3.0999999999999996 111.5 1.5999999999999996 C 111.5 1.2999999999999996 111.5 1.1999999999999997 111.6 1.1999999999999997 C 111.69999999999999 1.1999999999999997 111.8 1.1999999999999997 111.89999999999999 1.1999999999999997 C 112.1 1.2999999999999998 112.3 1.3999999999999997 112.49999999999999 1.4999999999999998 C 113.49999999999999 2.0999999999999996 114.29999999999998 3 114.79999999999998 4 C 115.09999999999998 4.9 114.99999999999999 5.9 114.49999999999999 6.6 C 114.4 6.8 114.1 7 113.5 6.7 L 113.5 6.7 z M 112.1 24.7 L 112.1 24.7 C 112.39999999999999 26.7 112 28.7 111 30.4 C 110.7 31 110.2 31.4 109.6 31.7 C 108.89999999999999 29.5 108.89999999999999 27.1 109.5 24.9 C 109.6 24.5 109.8 24 110 23.7 C 110.2 23.4 110.5 23.2 110.9 23.2 C 111.6 23.3 112 24 112.1 24.7 L 112.1 24.7 z M 130.1 7 C 131.1 6.7 131.7 6.7 132.1 7 C 132.4 7.4 132.4 7.9 132.1 8.3 C 131.7 8.8 131.2 9.200000000000001 130.7 9.4 C 130.2 9.6 129.79999999999998 9.9 129.29999999999998 10.1 C 126.09999999999998 10.4 122.89999999999998 11.1 119.89999999999998 12.2 C 122.9 10 126.4 8.3 130.1 7 z M 122.7 12.6 C 123.2 12.5 123.7 12.4 124 12.299999999999999 C 125.2 11.999999999999998 126.4 11.799999999999999 127.5 11.6 C 128.2 11.5 128.8 11.4 129.4 11.4 C 130.5 11.3 131.5 11.200000000000001 132.5 11.200000000000001 C 133.7 11.200000000000001 134.4 11.4 134.6 11.8 C 134.79999999999998 12.3 134.6 12.8 134.2 13.200000000000001 C 133.6 13.600000000000001 133 13.9 132.29999999999998 14.000000000000002 C 131.6 14.200000000000001 130.89999999999998 14.300000000000002 130.1 14.400000000000002 C 128.7 14.100000000000001 127.3 13.900000000000002 125.8 13.800000000000002 C 125.3 13.700000000000003 124.39999999999999 13.700000000000003 123.3 13.700000000000003 L 119.6 13.700000000000003 C 120.6 13.2 121.7 12.8 122.7 12.6 L 122.7 12.6 z M 127.6 27.6 C 127.5 27.6 127.39999999999999 27.700000000000003 127.3 27.700000000000003 C 126.7 27.6 126.2 27.300000000000004 125.8 26.900000000000002 L 125.8 26.900000000000002 C 122.89999999999999 24.3 120.39999999999999 21.300000000000004 118.39999999999999 18 C 120.8 20.2 123.39999999999999 22.1 126.19999999999999 23.6 C 126.49999999999999 24 126.89999999999999 24.400000000000002 127.19999999999999 24.8 C 127.6 25.3 127.89999999999999 25.8 128.1 26.400000000000002 C 128.1 26.8 128 27.3 127.6 27.6 L 127.6 27.6 z M 131.9 22.9 C 132.20000000000002 23.4 132.1 23.9 131.8 24.299999999999997 C 131.60000000000002 24.499999999999996 131.4 24.499999999999996 131.10000000000002 24.499999999999996 C 130.60000000000002 24.499999999999996 130.10000000000002 24.299999999999997 129.60000000000002 24.099999999999998 L 129.60000000000002 24.099999999999998 C 128.70000000000002 23.7 127.80000000000003 23.2 126.80000000000003 22.7 C 126.20000000000003 22.4 125.70000000000003 22.099999999999998 125.10000000000002 21.7 C 124.10000000000002 21.099999999999998 123.10000000000002 20.4 122.20000000000002 19.7 C 121.90000000000002 19.5 121.50000000000001 19.2 121.00000000000001 18.8 C 120.10000000000001 18.1 119.30000000000001 17.400000000000002 118.60000000000001 16.6 C 119.00000000000001 16.8 119.4 17 119.80000000000001 17.200000000000003 C 120.50000000000001 17.500000000000004 121.20000000000002 17.800000000000004 122.00000000000001 18.1 C 124.00000000000001 18.8 126.00000000000001 19.400000000000002 128 19.900000000000002 C 128.8 20.400000000000002 129.6 20.900000000000002 130.4 21.500000000000004 C 131.1 21.8 131.6 22.3 131.9 22.9 L 131.9 22.9 z M 120.1 14.7 C 120.5 14.7 124.8 14.7 125.69999999999999 14.799999999999999 C 126.6 14.899999999999999 127.29999999999998 14.999999999999998 128.1 15.1 C 128.7 15.2 129.4 15.299999999999999 130 15.4 C 131.4 15.700000000000001 132.7 16 134.1 16.4 C 134.9 16.599999999999998 135.6 16.9 136.2 17.4 C 136.7 17.799999999999997 136.79999999999998 18.5 136.6 19.099999999999998 C 136.2 19.599999999999998 135.5 19.9 134.79999999999998 19.799999999999997 C 134.49999999999997 19.799999999999997 134.29999999999998 19.799999999999997 133.99999999999997 19.799999999999997 L 132.59999999999997 19.599999999999998 L 128.39999999999998 18.799999999999997 C 127.79999999999998 18.699999999999996 127.09999999999998 18.499999999999996 126.49999999999997 18.299999999999997 C 123.89999999999998 17.599999999999998 121.29999999999997 16.699999999999996 118.89999999999998 15.499999999999996 L 118.49999999999997 15.299999999999997 C 119 15 119.6 14.7 120.1 14.7 L 120.1 14.7 z M 149.7 44.8 C 145.5 40.599999999999994 143.89999999999998 34.4 145.6 28.599999999999998 L 145.7 28.599999999999998 C 149.7 33 151.2 39.1 149.7 44.8 z M 146.3 27.8 L 145.9 27.400000000000002 C 149.70000000000002 25.3 153.9 24.1 158.20000000000002 23.900000000000002 C 160.10000000000002 23.8 162.00000000000003 24.1 163.70000000000002 24.900000000000002 C 159 29.2 152.1 30.4 146.3 27.8 L 146.3 27.8 z M 172.6 39.2 C 174.2 39.800000000000004 176.2 40.900000000000006 177.1 42.6 C 174 43.5 170.79999999999998 43.5 167.7 42.7 C 164.7 42 162 40.6 159.7 38.5 C 164 37.4 168.5 37.6 172.6 39.2 z M 161.6 60.3 C 157.6 54.699999999999996 156.79999999999998 47.4 159.5 41.099999999999994 C 163.5 46.6 164.3 53.9 161.6 60.3 z M 166.8 64.7 C 165.9 64.5 165.3 63.6 165.5 62.7 C 165.6 62.1 166.1 61.6 166.8 61.400000000000006 C 167.70000000000002 61.60000000000001 168.3 62.50000000000001 168.10000000000002 63.400000000000006 C 168 64.1 167.5 64.6 166.8 64.7 z M 174.6 67.9 C 174.2 69.9 173.2 71.7 171.79999999999998 73.10000000000001 C 171.39999999999998 70.50000000000001 171.39999999999998 67.80000000000001 171.89999999999998 65.2 C 172.09999999999997 63.900000000000006 172.7 62.6 173.59999999999997 61.7 C 174.7 63.6 175 65.8 174.6 67.9 z M 174.5 59.2 C 176.9 59.7 179.3 60.5 181.5 61.6 C 183.8 62.800000000000004 185.6 64.7 186.5 67.1 C 181.7 65.9 177.5 63.1 174.5 59.2 z" stroke-linecap="round" />
</g>
</g>
</g>
</g>
</g>
<g transform="matrix(1.9211538461538462 0 0 1.9211538461538462 728.0020673633214 489.7256375791249)" id="text-logo"  >
<g style=""  paint-order="stroke"   >
		<g transform="matrix(1 0 0 1 0 0)" id="text-logo-path-0"  >
<path style="stroke: rgb(165,122,175); stroke-width: 0; stroke-dasharray: none; stroke-linecap: butt; stroke-dashoffset: 0; stroke-linejoin: miter; stroke-miterlimit: 4; fill: rgb(72,158,234); fill-rule: nonzero; opacity: 1;"  paint-order="stroke"  transform=" translate(-188.42374999999998, 12.695)" d="M 13.44 -33.6 L 1.44 -33.6 L 1.44 0 L 4.99 0 L 4.99 -10.13 L 9.26 -10.13 C 11.47 -9.84 13.39 -8.78 15.07 -7.44 C 17.76 -5.28 19.92 -2.54 22.56 0 C 25.15 2.5 27.79 5.18 31.34 7.01 C 33.07 7.87 35.09 8.45 37.1 8.45 C 39.17 8.45 41.09 7.82 42.72 6.86 L 42.19 5.62 C 40.99 5.95 39.79 6.14 38.64 6.14 C 34.8 6.14 31.58 3.7 28.85 1.2 C 27.55 0 26.3 -1.25 25.06 -2.54 C 22.13 -5.57 18.34 -8.64 14.35 -10.18 C 20.4 -10.66 25.15 -15.7 25.15 -21.89 C 25.15 -28.37 19.92 -33.6 13.44 -33.6 Z M 11.18 -11.47 L 4.99 -11.47 L 4.99 -32.26 L 11.18 -32.26 C 16.94 -32.26 21.6 -27.6 21.6 -21.89 C 21.6 -16.13 16.94 -11.47 11.18 -11.47 Z M 37.3 -1.34 L 37.3 -16.13 L 49.82 -16.13 L 49.82 -17.47 L 37.3 -17.47 L 37.3 -32.26 L 53.28 -32.26 L 53.28 -33.6 L 33.74 -33.6 L 33.74 0 L 53.28 0 L 53.28 -1.34 Z M 58.22 -10.42 L 56.88 -10.42 C 57.12 -3.89 63.22 0.24 69.31 0.24 C 74.26 0.24 79.63 -2.21 81.22 -7.25 C 81.84 -9.22 81.89 -11.28 81.17 -13.34 C 79.78 -17.33 75.79 -18.96 72.19 -20.35 C 70.56 -20.98 68.98 -21.55 67.58 -22.27 C 66.86 -22.66 66.24 -22.94 65.66 -23.33 C 64.75 -23.95 63.98 -25.01 63.89 -26.16 C 63.84 -26.74 63.89 -27.36 64.03 -27.98 C 64.66 -30.77 67.39 -32.5 70.13 -32.5 C 71.9 -32.5 73.73 -31.78 75.02 -30.53 C 76.18 -29.42 76.8 -27.89 76.7 -26.35 L 78 -26.35 C 77.71 -31.01 73.44 -33.84 69.12 -33.84 C 64.66 -33.84 60.29 -30.62 60.29 -25.97 C 60.29 -22.56 63.07 -20.06 66.05 -18.91 L 70.94 -17.04 C 73.49 -16.03 76.61 -14.74 77.71 -12.05 C 78.14 -10.94 78.24 -9.46 78 -8.11 C 77.18 -3.65 72.58 -1.1 68.4 -1.1 C 64.85 -1.1 61.3 -2.78 59.38 -5.86 C 58.51 -7.25 58.13 -8.83 58.22 -10.42 Z M 88.18 0 L 91.73 0 L 91.73 -33.6 L 88.18 -33.6 Z M 116.78 -1.34 L 101.76 -1.34 L 101.76 -33.6 L 98.21 -33.6 L 98.21 0 L 116.78 0 Z M 123.26 0 L 126.82 0 L 126.82 -33.6 L 123.26 -33.6 Z M 136.85 -1.34 L 136.85 -16.13 L 149.38 -16.13 L 149.38 -17.47 L 136.85 -17.47 L 136.85 -32.26 L 152.83 -32.26 L 152.83 -33.6 L 133.3 -33.6 L 133.3 0 L 152.83 0 L 152.83 -1.34 Z M 159.31 -33.6 L 159.31 0 L 160.66 0 L 160.66 -31.39 L 179.62 0 L 183.6 0 L 183.6 -33.6 L 182.26 -33.6 L 182.26 -2.21 L 163.3 -33.6 Z M 190.08 -33.6 L 190.08 -32.26 L 200.78 -32.26 L 200.78 0 L 204.38 0 L 204.38 -32.26 L 215.09 -32.26 L 215.09 -33.6 Z M 247.06 -33.6 L 243.07 -33.6 L 243.07 0 L 244.42 0 L 244.42 -30 L 255.55 0 L 259.54 0 L 268.9 -29.42 L 268.9 0 L 272.45 0 L 272.45 -33.6 L 268.9 -33.6 L 258.82 -1.92 Z M 278.93 0 L 282.48 0 L 282.48 -33.6 L 278.93 -33.6 Z M 288.96 -33.6 L 288.96 0 L 290.3 0 L 290.3 -31.39 L 309.26 0 L 313.25 0 L 313.25 -33.6 L 311.9 -33.6 L 311.9 -2.21 L 292.94 -33.6 Z M 319.73 0 L 329.71 0 C 338.98 0 346.51 -7.54 346.51 -16.8 C 346.51 -26.06 338.98 -33.6 329.71 -33.6 L 319.73 -33.6 Z M 327.5 -1.34 L 323.28 -1.34 L 323.28 -32.26 L 327.5 -32.26 C 336.05 -32.26 342.96 -25.34 342.96 -16.8 C 342.96 -8.26 336.05 -1.34 327.5 -1.34 Z M 351.94 -10.42 L 350.59 -10.42 C 350.83 -3.89 356.93 0.24 363.02 0.24 C 367.97 0.24 373.34 -2.21 374.93 -7.25 C 375.55 -9.22 375.6 -11.28 374.88 -13.34 C 373.49 -17.33 369.5 -18.96 365.9 -20.35 C 364.27 -20.98 362.69 -21.55 361.3 -22.27 C 360.58 -22.66 359.95 -22.94 359.38 -23.33 C 358.46 -23.95 357.7 -25.01 357.6 -26.16 C 357.55 -26.74 357.6 -27.36 357.74 -27.98 C 358.37 -30.77 361.1 -32.5 363.84 -32.5 C 365.62 -32.5 367.44 -31.78 368.74 -30.53 C 369.89 -29.42 370.51 -27.89 370.42 -26.35 L 371.71 -26.35 C 371.42 -31.01 367.15 -33.84 362.83 -33.84 C 358.37 -33.84 354 -30.62 354 -25.97 C 354 -22.56 356.78 -20.06 359.76 -18.91 L 364.66 -17.04 C 367.2 -16.03 370.32 -14.74 371.42 -12.05 C 371.86 -10.94 371.95 -9.46 371.71 -8.11 C 370.9 -3.65 366.29 -1.1 362.11 -1.1 C 358.56 -1.1 355.01 -2.78 353.09 -5.86 C 352.22 -7.25 351.84 -8.83 351.94 -10.42 Z" stroke-linecap="round" />
</g>
</g>
</g>
<g transform="matrix(1.9211538461538462 0 0 1.9211538461538462 221.47829355243175 515.685669241902)" id="tagline-7661fda2-bb96-493c-a811-692a402d13b6-logo"  >
<g style=""  paint-order="stroke"   >
		<g transform="matrix(1 0 0 1 0 0)" id="tagline-7661fda2-bb96-493c-a811-692a402d13b6-logo-path-0"  >
<path style="stroke: rgb(14,72,123); stroke-width: 0; stroke-dasharray: none; stroke-linecap: butt; stroke-dashoffset: 0; stroke-linejoin: miter; stroke-miterlimit: 4; fill: rgb(95,170,236); fill-rule: nonzero; opacity: 1;"  paint-order="stroke"  transform=" translate(-15.180000000000001, 8.645000000000001)" d="M 9.24 -23.1 L 0.99 -23.1 L 0.99 0 L 3.43 0 L 3.43 -6.96 L 6.37 -6.96 C 7.89 -6.77 9.21 -6.04 10.36 -5.12 C 12.21 -3.63 13.7 -1.75 15.51 0 C 17.29 1.72 19.11 3.56 21.55 4.82 C 22.74 5.41 24.12 5.81 25.51 5.81 C 26.93 5.81 28.25 5.38 29.37 4.72 L 29.01 3.86 C 28.18 4.09 27.36 4.22 26.57 4.22 C 23.93 4.22 21.71 2.54 19.83 0.83 C 18.94 0 18.08 -0.86 17.23 -1.75 C 15.21 -3.83 12.61 -5.94 9.87 -7 C 14.03 -7.33 17.29 -10.79 17.29 -15.05 C 17.29 -19.5 13.7 -23.1 9.24 -23.1 Z M 7.69 -7.89 L 3.43 -7.89 L 3.43 -22.18 L 7.69 -22.18 C 11.65 -22.18 14.85 -18.98 14.85 -15.05 C 14.85 -11.09 11.65 -7.89 7.69 -7.89 Z" stroke-linecap="round" />
</g>
</g>
</g>
<g transform="matrix(1.9211538461538462 0 0 1.9211538461538462 769.0111091496394 566.5353743955754)" id="tagline-76058886-8c84-4785-9554-4c69d1ca9884-logo"  >
<g style=""  paint-order="stroke"   >
		<g transform="matrix(1 0 0 1 0 0)" id="tagline-76058886-8c84-4785-9554-4c69d1ca9884-logo-path-0"  >
<path style="stroke: none; stroke-width: 0; stroke-dasharray: none; stroke-linecap: butt; stroke-dashoffset: 0; stroke-linejoin: miter; stroke-miterlimit: 4; fill: rgb(54,149,231); fill-rule: nonzero; opacity: 1;"  paint-order="stroke"  transform=" translate(-205.04500000000002, 7.1499999999999995)" d="M 1.28 0 L 2.26 0 L 3.9 -10.82 L 4.1 -12.34 C 4.25 -11.91 4.43 -11.42 4.68 -10.86 L 8.86 -0.74 L 9.4 -0.74 L 14.12 -10.84 C 14.24 -11.12 14.36 -11.39 14.47 -11.65 C 14.7 -12.17 14.78 -12.37 14.8 -12.4 C 14.8 -12.05 14.85 -11.53 14.96 -10.86 L 16.52 0 L 17.52 0 L 15.34 -14.42 L 14.8 -14.42 L 9.82 -3.8 C 9.44 -3.03 9.24 -2.57 9.2 -2.42 C 9.07 -2.86 8.89 -3.32 8.66 -3.82 L 4.2 -14.42 L 3.64 -14.42 Z M 28.42 0 L 35.28 0 L 35.28 -0.84 L 29.38 -0.84 L 29.38 -7.38 L 34.52 -7.38 L 34.52 -8.2 L 29.38 -8.2 L 29.38 -13.46 L 35.06 -13.46 L 35.06 -14.3 L 28.42 -14.3 Z M 46.09 0 L 47.06 0 L 47.06 -10.32 L 47.02 -12.02 L 46.99 -12.46 C 47.18 -12.21 47.61 -11.7 48.28 -10.94 L 57.88 0.12 L 58.32 0.12 L 58.32 -14.3 L 57.35 -14.3 L 57.35 -3.94 C 57.36 -3.11 57.39 -2.37 57.44 -1.74 C 57.09 -2.2 56.59 -2.8 55.95 -3.56 L 46.53 -14.42 L 46.09 -14.42 Z M 68.37 -13.46 L 73.22 -13.46 L 73.22 0 L 74.17 0 L 74.17 -13.46 L 79.02 -13.46 L 79.02 -14.3 L 68.37 -14.3 Z M 85.22 0 L 86.24 0 L 88.3 -4.96 L 94.71 -4.96 L 96.76 0 L 97.84 0 L 91.81 -14.4 L 91.24 -14.4 Z M 88.64 -5.78 L 90.84 -11.1 C 91.02 -11.5 91.2 -11.98 91.39 -12.56 C 91.43 -12.71 91.46 -12.79 91.46 -12.8 C 91.46 -12.68 91.7 -12.1 92.16 -11.08 L 94.37 -5.78 Z M 107.77 0 L 115.31 0 L 115.31 -0.88 L 108.74 -0.88 L 108.74 -14.3 L 107.77 -14.3 Z M 139.54 0 L 140.51 0 L 140.51 -7.16 L 150.32 -7.16 L 150.32 0 L 151.29 0 L 151.29 -14.3 L 150.32 -14.3 L 150.32 -8.02 L 140.51 -8.02 L 140.51 -14.3 L 139.54 -14.3 Z M 163.54 0 L 170.4 0 L 170.4 -0.84 L 164.5 -0.84 L 164.5 -7.38 L 169.64 -7.38 L 169.64 -8.2 L 164.5 -8.2 L 164.5 -13.46 L 170.18 -13.46 L 170.18 -14.3 L 163.54 -14.3 Z M 178.89 0 L 179.91 0 L 181.97 -4.96 L 188.38 -4.96 L 190.43 0 L 191.51 0 L 185.48 -14.4 L 184.91 -14.4 Z M 182.31 -5.78 L 184.51 -11.1 C 184.69 -11.5 184.87 -11.98 185.06 -12.56 C 185.1 -12.71 185.12 -12.79 185.13 -12.8 C 185.13 -12.68 185.37 -12.1 185.83 -11.08 L 188.03 -5.78 Z M 201.44 0 L 208.98 0 L 208.98 -0.88 L 202.41 -0.88 L 202.41 -14.3 L 201.44 -14.3 Z M 214.66 -13.46 L 219.5 -13.46 L 219.5 0 L 220.46 0 L 220.46 -13.46 L 225.31 -13.46 L 225.31 -14.3 L 214.66 -14.3 Z M 235.35 0 L 236.32 0 L 236.32 -7.16 L 246.13 -7.16 L 246.13 0 L 247.1 0 L 247.1 -14.3 L 246.13 -14.3 L 246.13 -8.02 L 236.32 -8.02 L 236.32 -14.3 L 235.35 -14.3 Z M 272.51 -1.58 L 272.03 -0.86 C 273.03 -0.13 274.26 0.24 275.7 0.24 C 277.13 0.24 278.26 -0.07 279.07 -0.69 C 279.88 -1.31 280.29 -2.23 280.29 -3.44 C 280.29 -4.16 280.06 -4.82 279.62 -5.44 C 279.18 -6.05 278.65 -6.58 278.02 -7.02 C 277.4 -7.46 276.77 -7.89 276.15 -8.31 C 275.51 -8.73 274.99 -9.21 274.55 -9.76 C 274.11 -10.29 273.88 -10.88 273.88 -11.5 C 273.88 -12.94 274.86 -13.66 276.8 -13.66 C 277.76 -13.65 278.73 -13.45 279.7 -13.04 L 280.04 -13.82 C 279.02 -14.3 277.91 -14.54 276.71 -14.54 C 275.52 -14.54 274.58 -14.27 273.88 -13.71 C 273.18 -13.15 272.83 -12.41 272.83 -11.46 C 272.83 -10.74 273.05 -10.07 273.49 -9.44 C 273.93 -8.81 274.46 -8.27 275.08 -7.82 C 275.71 -7.36 276.33 -6.92 276.97 -6.49 C 277.59 -6.05 278.13 -5.57 278.57 -5.03 C 279.01 -4.49 279.22 -3.92 279.22 -3.32 C 279.22 -2.45 278.92 -1.8 278.31 -1.34 C 277.69 -0.88 276.81 -0.64 275.67 -0.64 C 274.52 -0.64 273.46 -0.96 272.51 -1.58 Z M 291.44 0 L 298.3 0 L 298.3 -0.84 L 292.41 -0.84 L 292.41 -7.38 L 297.54 -7.38 L 297.54 -8.2 L 292.41 -8.2 L 292.41 -13.46 L 298.08 -13.46 L 298.08 -14.3 L 291.44 -14.3 Z M 309.11 -14.24 L 309.11 0 L 310.08 0 L 310.08 -5.88 C 311.14 -5.8 312.32 -5.76 313.63 -5.76 C 315.46 -3.25 316.61 -1.76 317.07 -1.28 C 317.53 -0.8 318.01 -0.44 318.52 -0.21 C 319.02 0.02 319.69 0.15 320.5 0.16 L 320.52 -0.48 C 319.49 -0.61 318.56 -1.09 317.75 -1.96 C 317.54 -2.21 317.07 -2.79 316.35 -3.74 C 315.62 -4.68 315.01 -5.49 314.51 -6.16 C 315.15 -6.6 315.71 -7.19 316.22 -7.94 C 316.72 -8.69 316.97 -9.49 316.97 -10.36 C 316.97 -11.64 316.53 -12.63 315.65 -13.33 C 314.78 -14.03 313.65 -14.38 312.3 -14.38 C 311.45 -14.38 310.38 -14.33 309.11 -14.24 Z M 310.08 -6.66 L 310.08 -13.44 C 310.88 -13.49 311.58 -13.52 312.18 -13.52 C 313.31 -13.52 314.22 -13.25 314.91 -12.73 C 315.6 -12.21 315.94 -11.44 315.94 -10.41 C 315.94 -9.38 315.61 -8.5 314.94 -7.72 C 314.27 -6.95 313.64 -6.56 313.06 -6.56 C 312.14 -6.56 311.14 -6.59 310.08 -6.66 Z M 326.45 -14.3 L 332.63 0.12 L 333.19 0.12 L 339.35 -14.3 L 338.33 -14.3 L 333.53 -2.9 C 333.25 -2.24 333.05 -1.69 332.95 -1.26 C 332.87 -1.56 332.66 -2.13 332.33 -2.94 L 327.53 -14.3 Z M 349.28 0 L 350.25 0 L 350.25 -14.3 L 349.28 -14.3 Z M 363.9 -1.89 C 365.39 -0.47 367.18 0.24 369.26 0.24 C 370.03 0.24 370.83 0.17 371.65 0 C 372.46 -0.17 373.13 -0.39 373.64 -0.68 L 373.33 -1.36 C 372.19 -0.88 370.83 -0.64 369.26 -0.64 C 367.45 -0.64 365.91 -1.28 364.63 -2.56 C 363.34 -3.83 362.7 -5.37 362.7 -7.19 C 362.7 -8.99 363.25 -10.53 364.36 -11.79 C 365.46 -13.04 366.89 -13.66 368.64 -13.66 C 370.1 -13.66 371.63 -13.42 373.24 -12.94 L 373.5 -13.74 C 371.86 -14.28 370.24 -14.54 368.64 -14.54 C 366.59 -14.54 364.92 -13.83 363.62 -12.41 C 362.31 -11 361.65 -9.24 361.65 -7.16 C 361.65 -5.07 362.41 -3.31 363.9 -1.89 Z M 384.37 0 L 391.23 0 L 391.23 -0.84 L 385.33 -0.84 L 385.33 -7.38 L 390.47 -7.38 L 390.47 -8.2 L 385.33 -8.2 L 385.33 -13.46 L 391.01 -13.46 L 391.01 -14.3 L 384.37 -14.3 Z M 401.02 -1.58 L 400.54 -0.86 C 401.55 -0.13 402.78 0.24 404.22 0.24 C 405.65 0.24 406.78 -0.07 407.59 -0.69 C 408.4 -1.31 408.81 -2.23 408.81 -3.44 C 408.81 -4.16 408.58 -4.82 408.14 -5.44 C 407.7 -6.05 407.17 -6.58 406.54 -7.02 C 405.92 -7.46 405.29 -7.89 404.67 -8.31 C 404.03 -8.73 403.5 -9.21 403.06 -9.76 C 402.62 -10.29 402.4 -10.88 402.4 -11.5 C 402.4 -12.94 403.38 -13.66 405.32 -13.66 C 406.28 -13.65 407.24 -13.45 408.22 -13.04 L 408.56 -13.82 C 407.54 -14.3 406.42 -14.54 405.23 -14.54 C 404.04 -14.54 403.09 -14.27 402.4 -13.71 C 401.7 -13.15 401.35 -12.41 401.35 -11.46 C 401.35 -10.74 401.57 -10.07 402.01 -9.44 C 402.45 -8.81 402.98 -8.27 403.6 -7.82 C 404.23 -7.36 404.85 -6.92 405.49 -6.49 C 406.11 -6.05 406.65 -5.57 407.09 -5.03 C 407.53 -4.49 407.74 -3.92 407.74 -3.32 C 407.74 -2.45 407.44 -1.8 406.82 -1.34 C 406.21 -0.88 405.33 -0.64 404.19 -0.64 C 403.04 -0.64 401.98 -0.96 401.02 -1.58 Z" stroke-linecap="round" />
</g>
</g>
</g>
</svg>